TITLE ""
FILE "Step1_Track11.mp3" MP3
  TRACK 01 AUDIO
    TITLE "Step1_Track11_01"
    INDEX 01 00:00:00
  TRACK 02 AUDIO
    TITLE "Step1_Track11_02"
    INDEX 01 00:00:24
  TRACK 03 AUDIO
    TITLE "Step1_Track11_03"
    INDEX 01 00:01:67
  TRACK 04 AUDIO
    TITLE "Step1_Track11_04"
    INDEX 01 00:02:43
  TRACK 05 AUDIO
    TITLE "Step1_Track11_05"
    INDEX 01 00:03:32
  TRACK 06 AUDIO
    TITLE "Step1_Track11_06"
    INDEX 01 00:03:48
  TRACK 07 AUDIO
    TITLE "Step1_Track11_07"
    INDEX 01 00:06:21
  TRACK 08 AUDIO
    TITLE "Step1_Track11_08"
    INDEX 01 00:06:58
  TRACK 09 AUDIO
    TITLE "Step1_Track11_09"
    INDEX 01 00:07:55
  TRACK 10 AUDIO
    TITLE "Step1_Track11_10"
    INDEX 01 00:07:57
  TRACK 11 AUDIO
    TITLE "Step1_Track11_11"
    INDEX 01 00:10:62
  TRACK 12 AUDIO
    TITLE "Step1_Track11_12"
    INDEX 01 00:11:06
  TRACK 13 AUDIO
    TITLE "Step1_Track11_13"
    INDEX 01 00:12:08
  TRACK 14 AUDIO
    TITLE "Step1_Track11_14"
    INDEX 01 00:12:21
  TRACK 15 AUDIO
    TITLE "Step1_Track11_15"
    INDEX 01 00:14:73
  TRACK 16 AUDIO
    TITLE "Step1_Track11_16"
    INDEX 01 00:15:33
  TRACK 17 AUDIO
    TITLE "Step1_Track11_17"
    INDEX 01 00:16:37
  TRACK 18 AUDIO
    TITLE "Step1_Track11_18"
    INDEX 01 00:16:45
  TRACK 19 AUDIO
    TITLE "Step1_Track11_19"
    INDEX 01 00:19:33
  TRACK 20 AUDIO
    TITLE "Step1_Track11_20"
    INDEX 01 00:19:66
  TRACK 21 AUDIO
    TITLE "Step1_Track11_21"
    INDEX 01 00:20:72
  TRACK 22 AUDIO
    TITLE "Step1_Track11_22"
    INDEX 01 00:21:07
  TRACK 23 AUDIO
    TITLE "Step1_Track11_23"
    INDEX 01 00:23:45
  TRACK 24 AUDIO
    TITLE "Step1_Track11_24"
    INDEX 01 00:23:64
  TRACK 25 AUDIO
    TITLE "Step1_Track11_25"
    INDEX 01 00:24:70
  TRACK 26 AUDIO
    TITLE "Step1_Track11_26"
    INDEX 01 00:25:06
  TRACK 27 AUDIO
    TITLE "Step1_Track11_27"
    INDEX 01 00:27:50
  TRACK 28 AUDIO
    TITLE "Step1_Track11_28"
    INDEX 01 00:28:09
  TRACK 29 AUDIO
    TITLE "Step1_Track11_29"
    INDEX 01 00:29:10
  TRACK 30 AUDIO
    TITLE "Step1_Track11_30"
    INDEX 01 00:29:22
  TRACK 31 AUDIO
    TITLE "Step1_Track11_31"
    INDEX 01 00:32:01
  TRACK 32 AUDIO
    TITLE "Step1_Track11_32"
    INDEX 01 00:32:34
  TRACK 33 AUDIO
    TITLE "Step1_Track11_33"
    INDEX 01 00:33:25
  TRACK 34 AUDIO
    TITLE "Step1_Track11_34"
    INDEX 01 00:33:47
  TRACK 35 AUDIO
    TITLE "Step1_Track11_35"
    INDEX 01 00:35:67
  TRACK 36 AUDIO
    TITLE "Step1_Track11_36"
    INDEX 01 00:36:18
  TRACK 37 AUDIO
    TITLE "Step1_Track11_37"
    INDEX 01 00:37:23
  TRACK 38 AUDIO
    TITLE "Step1_Track11_38"
    INDEX 01 00:37:45
  TRACK 39 AUDIO
    TITLE "Step1_Track11_39"
    INDEX 01 00:40:24
  TRACK 40 AUDIO
    TITLE "Step1_Track11_40"
    INDEX 01 00:40:65
  TRACK 41 AUDIO
    TITLE "Step1_Track11_41"
    INDEX 01 00:41:62
  TRACK 42 AUDIO
    TITLE "Step1_Track11_42"
    INDEX 01 00:41:66
  TRACK 43 AUDIO
    TITLE "Step1_Track11_43"
    INDEX 01 00:44:51
